<svg xmlns="http://www.w3.org/2000/svg" width="102.972" height="115.521" viewBox="0 0 102.972 115.521">
  <g id="kario" transform="translate(0.014 -0.017)">
    <path id="Trazado_1" data-name="Trazado 1" d="M693.761,236.836l40.711-31.476a1.147,1.147,0,0,0,.444-.9l.192-25.317a1.142,1.142,0,0,0-1.851-.9l-53.066,41.918a.319.319,0,0,0-.027.468l3.774,3.774a3.5,3.5,0,1,1-2.02,2.444l-12.4-12.4.016-.018-35.184-35.184a1.142,1.142,0,0,0-1.95.809v11.827a.319.319,0,0,0,.1.227l36.443,34.959a3.36,3.36,0,0,1,1.95.026,3.483,3.483,0,1,1-4.482,3.67,3.572,3.572,0,0,1,.054-1.04l-33.531-32.174a.319.319,0,0,0-.53.227v10.081a1.143,1.143,0,0,0,.349.823l45.181,43.469a3.434,3.434,0,0,1,1.975-.093,3.485,3.485,0,1,1-4.185,4.329,3.423,3.423,0,0,1-.056-1.679,1.16,1.16,0,0,1-.139-.113l-5.5-5.5a1.142,1.142,0,0,0-.809-.335H632.4c-.319,0-.292,6.108-.2,11.807a9.816,9.816,0,0,0,9.813,9.671h83.011a9.893,9.893,0,0,0,9.893-9.893V249.512a1.144,1.144,0,0,0-1.142-1.142h-29.82a1.142,1.142,0,0,1-.809-.335l-9.486-9.486a1.144,1.144,0,0,1,.109-1.712Z" transform="translate(-632.15 -177.98)" fill="#ff721b"/>
    <path id="Trazado_2" data-name="Trazado 2" d="M747.045,816.62v13.563h-.768V817.445L741.03,829.4l-5.265-11.956v12.744H735V816.626h1.117l4.913,11.506,4.9-11.506Z" transform="translate(-718.601 -714.705)"/>
    <path id="Trazado_3" data-name="Trazado 3" d="M866.194,816.62v.767h-6.015v5.632h6.015v.768h-6.015v5.632h6.015v.769H859.41V816.626Z" transform="translate(-823.161 -714.705)"/>
    <path id="Trazado_4" data-name="Trazado 4" d="M952.155,816.62a7.051,7.051,0,0,1,5.19,1.872,6.96,6.96,0,0,1,0,9.835,7.08,7.08,0,0,1-5.19,1.862H949.64V816.626Zm-1.747.8V829.4h1.738a6.366,6.366,0,0,0,4.614-1.631,6.183,6.183,0,0,0,0-8.731,6.384,6.384,0,0,0-4.614-1.623Z" transform="translate(-898.993 -714.705)"/>
    <path id="Trazado_5" data-name="Trazado 5" d="M1062.047,816.62v13.563h-.767V816.62Z" transform="translate(-992.82 -714.705)"/>
    <path id="Trazado_6" data-name="Trazado 6" d="M1125.306,817l4.922,13.563h-.8l-2.168-5.969h-4.693l-2.215,5.969h-.815L1124.52,817Zm1.669,6.842-2.063-5.69-2.074,5.69Z" transform="translate(-1041.784 -715.024)"/>
  </g>
</svg>
